HIERARCHY
ROOT Hips
{
	OFFSET	0.00	0.00	0.00
	CHANNELS 6 Xposition Yposition Zposition Zrotation Xrotation Yrotation
	JOINT Spine
	{
		OFFSET	 0.00	0.01	 0.00
		CHANNELS 3 Zrotation Xrotation Yrotation
		JOINT Spine1
		{
			OFFSET	 0.00	 2.45913012437421	 0.00
			CHANNELS 3 Zrotation Xrotation Yrotation
            JOINT Neck
            {
                OFFSET	 0.00	 2.48462964506057	 0.00
                CHANNELS 3 Zrotation Xrotation Yrotation
                JOINT Head
                {
                    OFFSET	 0.00	 0.927524780924562	 0.00
                    CHANNELS 3 Zrotation Xrotation Yrotation
                    End Site 
                    {
                        OFFSET	 0.00	 1.14999962169752	 0.00
                    }
                }
            }
			JOINT LeftShoulder
			{
				OFFSET	 0.00	 2.48462964506057	 0.00
				CHANNELS 3 Zrotation Xrotation Yrotation
				JOINT LeftUpArm
				{
					OFFSET	 0.00	 1.24881979654096	 0.00
					CHANNELS 3 Zrotation Xrotation Yrotation
					JOINT LeftForeArm
					{
						OFFSET	 0.00	2.59758046908119	 0.00
						CHANNELS 3 Zrotation Xrotation Yrotation
						JOINT LeftHand
						{
							OFFSET	 0.00	2.45542024364365	 0.00
							CHANNELS 3 Zrotation Xrotation Yrotation
							JOINT LeftHandThumb 
							{
								OFFSET	 0.00	0.00	 0.00
								CHANNELS 3 Zrotation Xrotation Yrotation
								End Site
								{
									OFFSET	 0.00	0.00	1.00000003353624
								}
							}
							JOINT L_Wrist_End 
							{
								OFFSET	 0.00	0.99999967115358	 0.00
								CHANNELS 3 Zrotation Xrotation Yrotation
								End Site 
								{
									OFFSET	 0.00	 0.00	 0.00
								}
							}
						}
					}
				}
			}
			JOINT RightShoulder
			{
				OFFSET	 0.00	 2.48462964506057	 0.00
				CHANNELS 3 Zrotation Xrotation Yrotation
				JOINT RightUpArm
				{
					OFFSET	 0.00	 1.24881979654096	 0.00
					CHANNELS 3 Zrotation Xrotation Yrotation
					JOINT RightForeArm
					{
						OFFSET	 0.00	2.59758046908119	 0.00
						CHANNELS 3 Zrotation Xrotation Yrotation
						JOINT RightHand
						{
							OFFSET	 0.00	2.45542024364365	 0.00
							CHANNELS 3 Zrotation Xrotation Yrotation
							JOINT RightHandThumb 
							{
								OFFSET	 0.00	0.00	 0.00
								CHANNELS 3 Zrotation Xrotation Yrotation
								End Site
								{
									OFFSET	 0.00	0.00	1.00000003353624
								}
							}
							JOINT R_Wrist_End 
							{
								OFFSET	 0.00	0.99999967115358	 0.00
								CHANNELS 3 Zrotation Xrotation Yrotation
								End Site 
								{
									OFFSET	 0.00	 0.00	 0.00
								}
							}
						}
					}
				}
			}
		}
	}
	JOINT LeftUpLeg
	{
		OFFSET	 1.2719394002717	 0.00	 0.00
		CHANNELS 3 Zrotation Xrotation Yrotation
		JOINT LeftLowLeg
		{
			OFFSET	 0.00	-4.3429100912261	 0.00
			CHANNELS 3 Zrotation Xrotation Yrotation
			JOINT LeftFoot
			{
				OFFSET	 0.00	-4.48767017425826	 0.00
				CHANNELS 3 Zrotation Xrotation Yrotation
				JOINT LeftToeBase
                {
                    OFFSET	 0.00	0.00	 1.51507020887566
                    CHANNELS 3 Zrotation Xrotation Yrotation
                    End Site 
                    {
                        OFFSET	 0.00	0.00	 0.75000010571191
                    }
                }
			}
		}
	}
	JOINT RightUpLeg
	{
		OFFSET	 -1.2719393604653	 0.00	 0.00
		CHANNELS 3 Zrotation Xrotation Yrotation
		JOINT RightLowLeg
		{
			OFFSET	 0.00	-4.3429100912261	 0.00
			CHANNELS 3 Zrotation Xrotation Yrotation
			JOINT RightFoot
			{
				OFFSET	 0.00	-4.48767017425826	 0.00
				CHANNELS 3 Zrotation Xrotation Yrotation
				JOINT RightToeBase
                {
                    OFFSET	 0.00	0.00	 1.51507020887566
                    CHANNELS 3 Zrotation Xrotation Yrotation
                    End Site 
                    {
                        OFFSET	 0.00	0.00	 0.749999965609858
                    }
                }   
			}
		}
	}
}
MOTION 
Frames:	20 
Frame Time: 0.02 
  3.6190499877929687 9.55177978515625 9.203629760742187 -66.0448 78.329 151.438 10.271 1.44495 -4.22806 18.1617 14.5088 -5.88588 -15.6514 8.96831 1.17323 8.44212 -56.577 6.35593 -113.0853 0.96655 3.38445 -52.7586 32.6725 56.9394 0.0 81.0925 0.0 32.443 -12.6024 21.1567 0.0 0.0 0.0 0.0 0.0 0.0 110.134796 1.56111 -6.22105 36.1808 24.7109 5.86997 0.0 50.2378 0.0 -7.52069 -25.09 71.8871 0.0 0.0 0.0 0.0 0.0 0.0 15.0387 -32.6835 -5.36372 0.0 44.1875 0.0 -15.204 -6.1954994 -1.95724 0.0 -39.9789 0.0 -14.1997 -17.3787 1.35507 0.0 15.049 0.0 27.5387 8.24352 -12.5145 0.0 -24.84181 0.0 
  3.6250900268554687 9.73822998046875 9.15573974609375 -63.5972 78.7182 149.834 9.72041 1.60684 -3.80133 18.1894 15.0018 -5.57737 -15.24 9.33577 0.551826 8.6133 -57.3096 6.05462 -113.189804 1.28763 3.50566 -52.6093 33.6414 57.3408 0.0 81.2168 0.0 32.0653 -13.0466 21.3953 0.0 0.0 0.0 0.0 0.0 0.0 110.1785 1.31907 -6.75245 35.8314 24.2779 6.45214 0.0 51.6468 0.0 -7.26026 -26.2545 74.028 0.0 0.0 0.0 0.0 0.0 0.0 14.5456 -33.7833 -3.81587 0.0 46.374 0.0 -14.8703 -6.469101 -4.27696 0.0 -40.0663 0.0 -14.9813 -16.4859 1.98457 0.0 14.9147 0.0 27.6657 7.96255 -14.3743 0.0 -24.47266 0.0 
  3.6318499755859377 9.919749755859375 9.11572998046875 -61.0723 79.0443 147.988 9.33309 1.63784 -3.25217 18.0119 15.6931 -5.18357 -14.8737 9.41907 0.0449397 8.44248 -57.3085 5.43312 -113.4179 1.73607 3.33256 -52.1452 34.3108 57.7239 0.0 81.4582 0.0 31.7854 -13.0247 22.2824 0.0 0.0 0.0 0.0 0.0 0.0 110.4811 0.98813 -7.08866 35.4102 24.1054 7.23189 0.0 52.5176 0.0 -6.40461 -26.486 76.6787 0.0 0.0 0.0 0.0 0.0 0.0 13.9922 -33.9325 -2.52986 0.0 46.9446 0.0 -14.5856 -7.4685993 -6.01243 0.0 -40.2446 0.0 -15.6677 -15.7391 1.67776 0.0 14.7306 0.0 26.5962 8.56415 -16.032 0.0 -24.535461 0.0 
  3.641130065917969 10.094199829101562 9.085679931640625 -57.4445 79.2612 144.687 9.53566 1.79843 -2.58222 17.2304 16.2979 -4.63643 -14.6948 9.12407 -0.105786 8.18074 -56.3129 4.50187 -113.3943 2.16212 3.38964 -51.5358 34.7677 57.6373 0.0 81.6286 0.0 31.3193 -12.9681 22.5238 0.0 0.0 0.0 0.0 0.0 0.0 111.1318 0.472062 -7.17388 35.0947 24.1834 7.49153 0.0 52.9458 0.0 -5.48116 -26.7682 79.7906 0.0 0.0 0.0 0.0 0.0 0.0 13.3494 -34.0401 -2.22536 0.0 47.99 0.0 -14.4133 -8.587601 -6.69431 0.0 -40.3412 0.0 -15.8666 -15.2349 1.43234 0.0 14.7175 0.0 24.6563 9.69105 -18.1162 0.0 -24.80271 0.0 
  3.649700012207031 10.2477001953125 9.070549926757813 -53.7315 79.2229 141.264 9.68056 2.05719 -2.15647 16.7264 16.3771 -4.21985 -14.9509 9.36795 -0.0656184 8.31829 -55.4207 4.05468 -113.1869 2.03999 3.50947 -51.393 35.0502 57.694 0.0 81.3168 0.0 30.9826 -13.1853 21.0211 0.0 0.0 0.0 0.0 0.0 0.0 111.2907 0.332728 -7.04832 35.7214 24.0332 7.04043 0.0 53.0691 0.0 -6.33903 -26.5635 77.3604 0.0 0.0 0.0 0.0 0.0 0.0 12.943 -34.6332 -2.00267 0.0 49.6414 0.0 -13.6123 -9.0077 -6.9352 0.0 -40.3145 0.0 -15.5689 -15.2029 1.5616 0.0 15.367 0.0 22.9024 10.6228 -21.0075 0.0 -25.0775 0.0 
  3.6533099365234376 10.374000244140625 9.075380249023437 -51.9954 79.0258 140.196 9.35888 2.1064 -2.03258 16.5832 16.1113 -4.05788 -15.3098 10.2435 -0.0118039 9.00412 -55.2008 4.30848 -112.7802 1.70355 3.38644 -51.7455 35.0284 58.0901 0.0 80.5737 0.0 31.0661 -13.9256 20.3271 0.0 0.0 0.0 0.0 0.0 0.0 111.3617 0.354026 -7.01886 36.5262 23.9521 6.33822 0.0 52.9948 0.0 -6.81503 -27.4336 78.3127 0.0 0.0 0.0 0.0 0.0 0.0 12.3049 -35.3258 -2.08478 0.0 50.4459 0.0 -12.7199 -8.763901 -6.98621 0.0 -40.729202 0.0 -15.2096 -15.645 0.576079 0.0 16.8763 0.0 27.1095 8.686871 -23.6781 0.0 -24.749191 0.0 
  3.657669982910156 10.48030029296875 9.100989990234375 -51.665 78.8109 140.676 8.57845 1.84387 -2.01551 16.9667 16.1056 -4.06111 -15.4027 11.1114 -0.286413 9.26356 -55.293 4.55269 -112.5632 1.52016 3.20405 -51.9499 34.932 58.3086 0.0 79.8933 0.0 30.6523 -14.1886 21.6171 0.0 0.0 0.0 0.0 0.0 0.0 111.1913 0.427086 -7.19577 37.3017 24.1755 5.75458 0.0 52.7744 0.0 -7.13962 -28.5421 80.6105 0.0 0.0 0.0 0.0 0.0 0.0 11.6229 -35.5786 -2.03665 0.0 50.0128 0.0 -11.8643 -8.2355995 -7.23765 0.0 -41.0272 0.0 -14.8839 -16.3241 -2.27586 0.0 18.7356 0.0 28.7283 8.10367 -23.698 0.0 -25.201199 0.0 
  3.659530029296875 10.578599853515625 9.1393798828125 -52.2104 78.569 141.738 7.80201 1.50249 -1.85974 17.2493 16.2371 -3.94311 -15.4188 11.7081 -0.437213 9.11175 -55.0757 4.94385 -112.4332 1.52803 3.16507 -51.7446 34.8555 58.1599 0.0 79.5385 0.0 30.4924 -14.0976 22.1138 0.0 0.0 0.0 0.0 0.0 0.0 111.7626 0.74034 -7.29495 36.1078 23.4799 3.4196 0.0 53.8535 0.0 -7.95988 -29.4405 84.394 0.0 0.0 0.0 0.0 0.0 0.0 11.0922 -35.4574 -1.5908 0.0 48.8527 0.0 -11.2175 -7.6581 -7.57037 0.0 -41.0957 0.0 -14.5754 -17.2887 -5.64618 0.0 20.6792 0.0 28.2702 8.348619 -22.2005 0.0 -25.384201 0.0 
  3.661510009765625 10.6752001953125 9.18791015625 -52.0732 78.386 141.951 7.57573 1.20306 -1.61818 16.7288 16.6313 -3.80246 -15.2822 11.9434 -0.467107 9.39512 -54.726 4.96821 -112.002 1.61168 3.09426 -51.4121 34.7937 57.7508 0.0 79.2854 0.0 29.7011 -13.8132 22.2638 0.0 0.0 0.0 0.0 0.0 0.0 111.5819 0.787366 -7.28111 37.3091 23.9691 2.3087 0.0 53.4951 0.0 -7.84482 -29.7347 85.2182 0.0 0.0 0.0 0.0 0.0 0.0 10.6968 -35.0315 -1.04508 0.0 47.5031 0.0 -10.5087 -6.9470997 -7.80536 0.0 -41.225502 0.0 -14.0131 -18.0843 -7.82425 0.0 22.2696 0.0 27.4331 8.787701 -21.9405 0.0 -25.851 0.0 
  3.6647698974609373 10.765799560546874 9.244420166015624 -51.6574 78.2659 141.863 7.64061 1.04387 -1.4359 15.7997 16.8545 -3.69604 -14.9452 12.0954 -0.560648 9.71467 -54.1758 4.85936 -111.507 1.66897 3.00843 -51.0346 34.6172 57.4407 0.0 78.9946 0.0 29.5673 -13.8956 21.6074 0.0 0.0 0.0 0.0 0.0 0.0 111.6714 0.903141 -7.35821 38.5078 24.402 1.43174 0.0 53.3018 0.0 -7.47648 -30.0987 85.2032 0.0 0.0 0.0 0.0 0.0 0.0 10.1931 -34.3983 -0.89194 0.0 45.9577 0.0 -9.71519 -6.131901 -7.71345 0.0 -41.250603 0.0 -13.2113 -18.6955 -8.43633 0.0 23.4908 0.0 27.4866 8.98114 -22.4656 0.0 -26.1971 0.0 
  3.6670901489257814 10.82760009765625 9.30718994140625 -50.6743 78.0985 141.145 7.26683 1.11853 -1.34999 15.6593 16.6942 -3.59183 -14.5997 12.5649 -0.721006 9.9735 -53.9114 5.20512 -111.223 1.59883 3.18489 -50.6426 34.5699 57.138 0.0 78.6087 0.0 29.5255 -14.2888 20.6999 0.0 0.0 0.0 0.0 0.0 0.0 111.747604 1.09142 -7.30836 39.4171 24.3468 0.125988 0.0 53.5569 0.0 -7.62949 -30.5306 85.4838 0.0 0.0 0.0 0.0 0.0 0.0 10.1059 -33.6206 -0.572949 0.0 44.2319 0.0 -9.13689 -5.1082993 -7.85513 0.0 -41.4314 0.0 -11.8909 -19.2255 -7.86361 0.0 24.4848 0.0 27.4348 8.89603 -23.038 0.0 -26.4203 0.0 
  3.678389892578125 10.90010009765625 9.369559936523437 -50.1129 77.9069 141.056 7.18927 0.989548 -1.4254 15.4019 16.4264 -3.63061 -14.3088 13.1175 -0.975228 10.1129 -53.6614 5.44434 -110.9029 1.56763 3.19558 -50.6503 34.2888 57.101 0.0 78.1044 0.0 29.4355 -14.8529 19.3458 0.0 0.0 0.0 0.0 0.0 0.0 111.8136 1.12037 -7.39925 40.2633 24.3561 -0.74553 0.0 53.9497 0.0 -7.57679 -30.843 85.2643 0.0 0.0 0.0 0.0 0.0 0.0 9.59254 -32.8533 -0.894296 0.0 42.3736 0.0 -8.5367 -4.1455994 -7.61894 0.0 -41.3964 0.0 -10.8223 -19.5489 -7.80584 0.0 25.1945 0.0 27.1276 9.18604 -22.4281 0.0 -26.431599 0.0 
  3.6938400268554688 10.966300048828124 9.429910278320312 -50.0281 77.7006 141.345 6.9482 0.779471 -1.53057 15.413 16.0421 -3.66743 -14.0429 13.7386 -1.25005 10.1703 -53.4208 5.7376 -110.6393 1.51775 3.24581 -50.8153 33.9892 57.1817 0.0 77.6402 0.0 29.2859 -15.397 18.3567 0.0 0.0 0.0 0.0 0.0 0.0 111.7872 1.08941 -7.42473 41.0784 24.2546 -1.37786 0.0 54.3227 0.0 -6.91732 -30.4631 86.1355 0.0 0.0 0.0 0.0 0.0 0.0 9.1287 -32.0618 -1.13415 0.0 40.4679 0.0 -8.00028 -3.1907005 -7.41626 0.0 -41.280502 0.0 -9.70835 -19.921 -7.51843 0.0 25.8213 0.0 26.1929 9.44319 -21.5032 0.0 -26.486801 0.0 
  3.713070068359375 11.0297998046875 9.485560302734376 -50.3476 77.5526 141.904 6.63971 0.481726 -1.63512 15.4753 15.7508 -3.71787 -13.758 14.0925 -1.55282 10.0734 -53.0327 5.70934 -110.2433 1.44422 3.28504 -51.3845 33.6732 57.2299 0.0 77.176 0.0 28.8614 -15.7894 17.8034 0.0 0.0 0.0 0.0 0.0 0.0 111.9396 0.957459 -7.47605 41.3241 24.22 -2.05606 0.0 54.8098 0.0 -7.22066 -30.081 84.2278 0.0 0.0 0.0 0.0 0.0 0.0 8.63292 -31.2173 -1.37101 0.0 38.5885 0.0 -7.64554 -2.2870007 -7.23258 0.0 -41.154 0.0 -8.57745 -20.2606 -6.92747 0.0 26.2893 0.0 25.116 9.54646 -20.6937 0.0 -26.7889 0.0 
  3.733970031738281 11.088900146484375 9.5352197265625 -50.8799 77.4391 142.577 6.2685 0.202886 -1.78377 15.5657 15.4493 -3.8101 -13.4805 14.2045 -1.7073 10.078 -52.5388 5.61697 -109.9137 1.36753 2.83826 -51.8894 32.9466 57.6753 0.0 77.0654 0.0 28.582 -15.9361 17.1853 0.0 0.0 0.0 0.0 0.0 0.0 112.0963 0.689441 -7.6588 41.4233 24.4873 -2.63415 0.0 55.1412 0.0 -7.20701 -29.9254 82.8302 0.0 0.0 0.0 0.0 0.0 0.0 8.20748 -30.4065 -1.41056 0.0 36.8541 0.0 -7.33622 -1.3948002 -7.16667 0.0 -41.3704 0.0 -7.36212 -20.5435 -5.93018 0.0 26.5538 0.0 24.3379 9.394711 -20.5509 0.0 -27.0231 0.0 
  3.7552999877929687 11.144200439453124 9.5781298828125 -51.5155 77.3583 143.281 5.95742 -0.109525 -1.98081 15.5268 15.1248 -3.95108 -13.1 14.3896 -1.89655 10.2533 -52.0532 5.58209 -109.7439 1.24612 3.37524 -51.7064 33.0337 57.3497 0.0 77.0729 0.0 28.2253 -16.0356 16.6841 0.0 0.0 0.0 0.0 0.0 0.0 112.1521 0.611248 -7.74626 41.6256 24.5543 -3.25985 0.0 55.3136 0.0 -6.86003 -29.7067 82.815 0.0 0.0 0.0 0.0 0.0 0.0 7.80618 -29.5668 -1.36136 0.0 35.1378 0.0 -7.03906 -0.61590004 -7.13555 0.0 -41.4949 0.0 -6.12177 -20.7599 -4.88904 0.0 26.6071 0.0 23.661 8.96479 -20.9867 0.0 -27.235 0.0 
  3.7757699584960935 11.196800537109375 9.613709716796874 -52.0865 77.2988 143.913 5.76293 -0.372577 -2.21254 15.3205 14.8125 -4.13817 -12.4975 14.4182 -2.27406 10.4407 -51.5657 5.30975 -109.350296 1.19873 3.1579 -52.0628 32.4682 57.551 0.0 77.036 0.0 28.0175 -16.0646 16.1303 0.0 0.0 0.0 0.0 0.0 0.0 112.1225 0.467901 -7.65524 41.9708 24.6206 -4.11768 0.0 55.359 0.0 -6.48199 -29.3655 82.8225 0.0 0.0 0.0 0.0 0.0 0.0 7.45621 -28.7762 -1.15721 0.0 33.5529 0.0 -6.58518 0.043999672 -7.16204 0.0 -41.3709 0.0 -4.92408 -20.9279 -4.24025 0.0 26.5861 0.0 22.4983 8.5839405 -21.5999 0.0 -27.3118 0.0 
  3.7961199951171873 11.245799560546875 9.642990112304688 -52.6844 77.3109 144.517 5.61957 -0.593162 -2.4685 14.9163 14.4551 -4.35104 -11.6256 14.6681 -2.92787 10.8593 -51.2314 5.02997 -109.0478 1.08116 3.69383 -51.97 32.6208 57.2731 0.0 76.943 0.0 27.8169 -16.1223 15.4081 0.0 0.0 0.0 0.0 0.0 0.0 112.2166 0.540585 -7.62046 42.1182 24.4792 -4.81137 0.0 55.358 0.0 -6.10927 -29.1208 82.2488 0.0 0.0 0.0 0.0 0.0 0.0 7.08081 -27.9443 -0.954993 0.0 32.0418 0.0 -6.32981 0.6292 -7.21639 0.0 -41.2333 0.0 -3.79232 -21.0114 -3.92979 0.0 26.4656 0.0 20.83 8.19051 -22.2664 0.0 -27.2442 0.0 
  3.816499938964844 11.292099609375 9.666090087890625 -53.4038 77.4956 145.102 5.40938 -0.680406 -2.69977 14.5026 14.1111 -4.54186 -10.42 14.8688 -4.03467 10.9056 -50.7492 4.40933 -108.8724 1.02588 3.79218 -51.9284 32.4052 57.2538 0.0 76.9655 0.0 27.7042 -16.1562 15.8129 0.0 0.0 0.0 0.0 0.0 0.0 112.1435 0.675852 -8.04613 42.3003 24.675 -5.01025 0.0 55.1588 0.0 -6.23658 -29.0105 81.4428 0.0 0.0 0.0 0.0 0.0 0.0 6.62294 -27.0208 -0.782054 0.0 30.6737 0.0 -6.10457 1.1546001 -7.19013 0.0 -41.4105 0.0 -2.76328 -20.9721 -3.6767 0.0 26.2883 0.0 19.112 7.68424 -22.8858 0.0 -27.201 0.0 
  3.8368600463867186 11.3368994140625 9.684970092773437 -54.3969 77.6841 145.77 5.26211 -0.7963 -2.83268 13.9395 13.8448 -4.65154 -8.97087 15.1037 -5.50677 11.0741 -50.377 3.46939 -108.8065 1.02519 4.03404 -51.5699 32.3638 57.1509 0.0 77.1282 0.0 27.8095 -16.0414 16.562 0.0 0.0 0.0 0.0 0.0 0.0 112.2068 0.655085 -8.37408 42.3311 25.0188 -5.16454 0.0 54.6214 0.0 -6.0408 -28.2834 81.6682 0.0 0.0 0.0 0.0 0.0 0.0 6.15817 -26.1528 -0.612285 0.0 29.4667 0.0 -5.85644 1.5564003 -6.96597 0.0 -41.4334 0.0 -1.74621 -21.0043 -3.19845 0.0 26.1489 0.0 17.7291 7.20441 -23.1995 0.0 -27.331501 0.0 
